<mxfile host="app.diagrams.net" agent="Mozilla/5.0 (X11; Linux x86_64) AppleWebKit/537.36 (KHTML, like Gecko) Chrome/129.0.0.0 Safari/537.36" version="24.8.0">
  <diagram id="R2lEEEUBdFMjLlhIrx00" name="Page-1">
    <mxGraphModel dx="1368" dy="757" grid="1" gridSize="10" guides="1" tooltips="1" connect="1" arrows="1" fold="1" page="1" pageScale="1" pageWidth="850" pageHeight="1100" math="0" shadow="0" extFonts="Permanent Marker^https://fonts.googleapis.com/css?family=Permanent+Marker">
      <root>
        <mxCell id="0" />
        <mxCell id="1" parent="0" />
        <mxCell id="NjFjKxCE7nN1qTIgbnOp-3" value="" style="edgeStyle=orthogonalEdgeStyle;rounded=0;orthogonalLoop=1;jettySize=auto;html=1;" edge="1" parent="1" source="NjFjKxCE7nN1qTIgbnOp-1" target="NjFjKxCE7nN1qTIgbnOp-2">
          <mxGeometry relative="1" as="geometry" />
        </mxCell>
        <mxCell id="NjFjKxCE7nN1qTIgbnOp-1" value="复制" style="rounded=0;whiteSpace=wrap;html=1;" vertex="1" parent="1">
          <mxGeometry x="270" y="290" width="120" height="60" as="geometry" />
        </mxCell>
        <mxCell id="NjFjKxCE7nN1qTIgbnOp-5" value="" style="edgeStyle=orthogonalEdgeStyle;rounded=0;orthogonalLoop=1;jettySize=auto;html=1;" edge="1" parent="1" source="NjFjKxCE7nN1qTIgbnOp-2" target="NjFjKxCE7nN1qTIgbnOp-4">
          <mxGeometry relative="1" as="geometry" />
        </mxCell>
        <mxCell id="NjFjKxCE7nN1qTIgbnOp-7" value="" style="edgeStyle=orthogonalEdgeStyle;rounded=0;orthogonalLoop=1;jettySize=auto;html=1;" edge="1" parent="1" source="NjFjKxCE7nN1qTIgbnOp-2" target="NjFjKxCE7nN1qTIgbnOp-6">
          <mxGeometry relative="1" as="geometry" />
        </mxCell>
        <mxCell id="NjFjKxCE7nN1qTIgbnOp-8" value="复制" style="edgeLabel;html=1;align=center;verticalAlign=middle;resizable=0;points=[];" vertex="1" connectable="0" parent="NjFjKxCE7nN1qTIgbnOp-7">
          <mxGeometry x="-0.025" relative="1" as="geometry">
            <mxPoint as="offset" />
          </mxGeometry>
        </mxCell>
        <mxCell id="NjFjKxCE7nN1qTIgbnOp-2" value="重复" style="whiteSpace=wrap;html=1;rounded=0;" vertex="1" parent="1">
          <mxGeometry x="470" y="290" width="120" height="60" as="geometry" />
        </mxCell>
        <mxCell id="NjFjKxCE7nN1qTIgbnOp-4" value="规模" style="whiteSpace=wrap;html=1;rounded=0;" vertex="1" parent="1">
          <mxGeometry x="670" y="290" width="120" height="60" as="geometry" />
        </mxCell>
        <mxCell id="NjFjKxCE7nN1qTIgbnOp-6" value="单个" style="whiteSpace=wrap;html=1;rounded=0;" vertex="1" parent="1">
          <mxGeometry x="470" y="150" width="120" height="60" as="geometry" />
        </mxCell>
      </root>
    </mxGraphModel>
  </diagram>
</mxfile>
